<svg width="631" height="393" viewBox="0 0 631 393" fill="none" xmlns="http://www.w3.org/2000/svg">
<g filter="url(#filter0_b_62_8)">
<path d="M0 0H631V196.5V393H0V0Z" fill="url(#paint0_linear_62_8)"/>
</g>
<path d="M38.9288 129.181C37.216 127.302 37.3819 124.418 39.2993 122.74C41.2167 121.061 44.1595 121.224 45.8723 123.103C47.585 124.982 47.4192 127.865 45.5018 129.544C43.5844 131.222 40.6416 131.06 38.9288 129.181Z" fill="#FC5BFF" fill-opacity="0.4"/>
<path d="M98.3464 169.58C97.9713 170.637 96.7923 171.197 95.713 170.829C94.6336 170.462 94.0626 169.306 94.4377 168.249C94.8127 167.191 95.9917 166.631 97.0711 166.999C98.1504 167.366 98.7214 168.522 98.3464 169.58Z" fill="#0B0F95" fill-opacity="0.8"/>
<path d="M200.878 312.886C200.564 310.386 202.379 308.109 204.931 307.802C207.483 307.495 209.805 309.274 210.119 311.774C210.432 314.275 208.617 316.551 206.065 316.858C203.514 317.165 201.191 315.387 200.878 312.886Z" fill="#155F80" fill-opacity="0.8"/>
<path d="M85.3921 268.767C85.9133 266.504 88.0092 264.988 90.0735 265.381C92.1378 265.775 93.3887 267.93 92.8674 270.193C92.3462 272.457 90.2503 273.973 88.186 273.579C86.1217 273.186 84.8709 271.031 85.3921 268.767Z" fill="#CB26FF" fill-opacity="0.3"/>
<path d="M186.935 238.422C185.902 239.816 184.077 240.124 182.86 239.111C181.642 238.097 181.493 236.146 182.526 234.752C183.559 233.358 185.384 233.05 186.601 234.063C187.819 235.076 187.968 237.028 186.935 238.422Z" fill="#155F80" fill-opacity="0.8"/>
<path d="M44.3997 320.378C45.3907 318.676 47.5596 318.152 49.2442 319.208C50.9287 320.264 51.4909 322.5 50.4999 324.202C49.5089 325.904 47.34 326.427 45.6554 325.372C43.9709 324.316 43.4087 322.08 44.3997 320.378Z" fill="#0B0F95" fill-opacity="0.8"/>
<path d="M147.499 252.508C147.646 253.631 146.911 254.739 145.857 254.983C144.802 255.227 143.828 254.515 143.681 253.392C143.533 252.269 144.268 251.161 145.323 250.917C146.377 250.673 147.351 251.386 147.499 252.508Z" fill="#0B0F95" fill-opacity="0.8"/>
<path d="M99.9656 92.3288C99.9656 94.0084 98.5761 95.37 96.8621 95.37C95.1481 95.37 93.7587 94.0084 93.7587 92.3288C93.7587 90.6491 95.1481 89.2875 96.8621 89.2875C98.5761 89.2875 99.9656 90.6491 99.9656 92.3288Z" fill="#155F80" fill-opacity="0.8"/>
<path d="M233.414 228.68C233.414 229.52 232.719 230.2 231.862 230.2C231.005 230.2 230.31 229.52 230.31 228.68C230.31 227.84 231.005 227.159 231.862 227.159C232.719 227.159 233.414 227.84 233.414 228.68Z" fill="#155F80" fill-opacity="0.8"/>
<path d="M230.31 140.989C230.31 142.669 228.921 144.031 227.207 144.031C225.493 144.031 224.104 142.669 224.104 140.989C224.104 139.31 225.493 137.948 227.207 137.948C228.921 137.948 230.31 139.31 230.31 140.989Z" fill="#CB26FF" fill-opacity="0.3"/>
<path d="M284.104 114.632C284.104 115.751 283.177 116.659 282.035 116.659C280.892 116.659 279.966 115.751 279.966 114.632C279.966 113.512 280.892 112.604 282.035 112.604C283.177 112.604 284.104 113.512 284.104 114.632Z" fill="#0B0F95" fill-opacity="0.8"/>
<path d="M611 269.23C611 270.07 610.305 270.751 609.448 270.751C608.591 270.751 607.897 270.07 607.897 269.23C607.897 268.39 608.591 267.71 609.448 267.71C610.305 267.71 611 268.39 611 269.23Z" fill="#155F80" fill-opacity="0.8"/>
<path d="M579.965 250.476C579.965 251.595 579.039 252.503 577.896 252.503C576.754 252.503 575.828 251.595 575.828 250.476C575.828 249.356 576.754 248.448 577.896 248.448C579.039 248.448 579.965 249.356 579.965 250.476Z" fill="#0B0F95" fill-opacity="0.8"/>
<path d="M262.242 271.405C260.828 272.355 258.897 272.002 257.927 270.616C256.958 269.231 257.319 267.338 258.732 266.388C260.146 265.438 262.078 265.791 263.047 267.177C264.016 268.562 263.656 270.455 262.242 271.405Z" fill="#CB26FF" fill-opacity="0.3"/>
<path d="M135.076 129.288C133.968 128.405 133.799 126.809 134.7 125.723C135.6 124.636 137.229 124.471 138.338 125.353C139.446 126.236 139.615 127.832 138.714 128.919C137.814 130.005 136.185 130.17 135.076 129.288Z" fill="#CB26FF" fill-opacity="0.3"/>
<path d="M523.877 84.7255C523.877 85.5654 523.182 86.2462 522.325 86.2462C521.468 86.2462 520.774 85.5654 520.774 84.7255C520.774 83.8857 521.468 83.2049 522.325 83.2049C523.182 83.2049 523.877 83.8857 523.877 84.7255Z" fill="#155F80" fill-opacity="0.8"/>
<path d="M359.394 70.026C359.394 71.1458 358.468 72.0535 357.325 72.0535C356.183 72.0535 355.256 71.1458 355.256 70.026C355.256 68.9062 356.183 67.9985 357.325 67.9985C358.468 67.9985 359.394 68.9062 359.394 70.026Z" fill="#0B0F95" fill-opacity="0.8"/>
<path d="M359.394 119.193C359.394 121.713 357.31 123.755 354.739 123.755C352.168 123.755 350.084 121.713 350.084 119.193C350.084 116.674 352.168 114.632 354.739 114.632C357.31 114.632 359.394 116.674 359.394 119.193Z" fill="#1CF6EA" fill-opacity="0.37"/>
<path d="M540.429 114.631C540.429 116.311 539.039 117.673 537.325 117.673C535.611 117.673 534.222 116.311 534.222 114.631C534.222 112.952 535.611 111.59 537.325 111.59C539.039 111.59 540.429 112.952 540.429 114.631Z" fill="#CB26FF" fill-opacity="0.3"/>
<path d="M445.256 80.6705C445.256 82.6301 443.635 84.2187 441.636 84.2187C439.636 84.2187 438.015 82.6301 438.015 80.6705C438.015 78.7109 439.636 77.1223 441.636 77.1223C443.635 77.1223 445.256 78.7109 445.256 80.6705Z" fill="#0B0F95" fill-opacity="0.8"/>
<path d="M404.912 45.6957C404.912 47.9352 403.059 49.7507 400.774 49.7507C398.488 49.7507 396.636 47.9352 396.636 45.6957C396.636 43.4561 398.488 41.6406 400.774 41.6406C403.059 41.6406 404.912 43.4561 404.912 45.6957Z" fill="#CB26FF" fill-opacity="0.3"/>
<path d="M503.187 121.728C503.187 122.848 502.261 123.755 501.118 123.755C499.976 123.755 499.049 122.848 499.049 121.728C499.049 120.608 499.976 119.7 501.118 119.7C502.261 119.7 503.187 120.608 503.187 121.728Z" fill="#0B0F95" fill-opacity="0.8"/>
<path d="M544.649 8.31039C546.152 5.92982 549.34 5.19409 551.769 6.66708C554.199 8.14007 554.949 11.264 553.446 13.6446C551.943 16.0251 548.755 16.7609 546.326 15.2879C543.897 13.8149 543.146 10.691 544.649 8.31039Z" fill="#CB26FF" fill-opacity="0.3"/>
<path d="M573.598 68.4479C572.456 67.1952 572.567 65.2726 573.845 64.1537C575.123 63.0347 577.085 63.143 578.227 64.3957C579.369 65.6483 579.258 67.5709 577.98 68.6899C576.702 69.8089 574.74 69.7005 573.598 68.4479Z" fill="#155F80" fill-opacity="0.8"/>
<path d="M540.225 232.939C539.654 232.312 539.709 231.351 540.348 230.792C540.987 230.232 541.968 230.286 542.539 230.913C543.11 231.539 543.055 232.5 542.416 233.06C541.777 233.619 540.796 233.565 540.225 232.939Z" fill="#155F80" fill-opacity="0.8"/>
<path d="M443.412 214.218C442.27 212.965 442.381 211.043 443.659 209.924C444.938 208.805 446.899 208.913 448.041 210.166C449.183 211.418 449.073 213.341 447.794 214.46C446.516 215.579 444.554 215.471 443.412 214.218Z" fill="#CB26FF" fill-opacity="0.3"/>
<path d="M498.585 207.042C497.824 206.207 497.898 204.926 498.75 204.18C499.602 203.434 500.91 203.506 501.671 204.341C502.432 205.176 502.359 206.458 501.507 207.204C500.654 207.95 499.346 207.877 498.585 207.042Z" fill="#0B0F95" fill-opacity="0.8"/>
<path d="M446.087 344.453C445.516 343.826 445.571 342.865 446.21 342.305C446.849 341.746 447.83 341.8 448.401 342.426C448.972 343.053 448.917 344.014 448.278 344.574C447.639 345.133 446.658 345.079 446.087 344.453Z" fill="#155F80" fill-opacity="0.8"/>
<path d="M410.654 300.309C409.893 299.473 409.967 298.192 410.819 297.446C411.671 296.7 412.979 296.772 413.74 297.607C414.501 298.442 414.428 299.724 413.576 300.47C412.723 301.216 411.415 301.144 410.654 300.309Z" fill="#0B0F95" fill-opacity="0.8"/>
<path d="M373.81 253.152C372.258 251.917 372.022 249.682 373.283 248.161C374.544 246.64 376.824 246.408 378.376 247.644C379.928 248.88 380.164 251.114 378.903 252.635C377.643 254.156 375.362 254.388 373.81 253.152Z" fill="#CB26FF" fill-opacity="0.3"/>
<path d="M571.69 303.191C571.69 305.431 569.837 307.246 567.552 307.246C565.266 307.246 563.414 305.431 563.414 303.191C563.414 300.952 565.266 299.136 567.552 299.136C569.837 299.136 571.69 300.952 571.69 303.191Z" fill="#CB26FF" fill-opacity="0.3"/>
<path d="M510.655 358.948C510.655 360.628 509.266 361.989 507.552 361.989C505.838 361.989 504.448 360.628 504.448 358.948C504.448 357.269 505.838 355.907 507.552 355.907C509.266 355.907 510.655 357.269 510.655 358.948Z" fill="#155F80" fill-opacity="0.8"/>
<path d="M500.104 274.773C497.984 276.198 495.086 275.668 493.632 273.59C492.179 271.512 492.719 268.673 494.84 267.248C496.96 265.823 499.858 266.353 501.311 268.431C502.765 270.509 502.225 273.349 500.104 274.773Z" fill="#1CF6EA" fill-opacity="0.37"/>
<path d="M198.241 68.3488C198.241 69.7485 197.083 70.8832 195.655 70.8832C194.227 70.8832 193.069 69.7485 193.069 68.3488C193.069 66.9491 194.227 65.8144 195.655 65.8144C197.083 65.8144 198.241 66.9491 198.241 68.3488Z" fill="#CB26FF" fill-opacity="0.3"/>
<path d="M148.586 66.3212C148.586 67.1611 147.892 67.8419 147.035 67.8419C146.178 67.8419 145.483 67.1611 145.483 66.3212C145.483 65.4814 146.178 64.8006 147.035 64.8006C147.892 64.8006 148.586 65.4814 148.586 66.3212Z" fill="#155F80" fill-opacity="0.8"/>
<path d="M170.308 37.9422C168.595 36.0633 168.761 33.1794 170.679 31.5009C172.596 29.8225 175.539 29.985 177.252 31.864C178.964 33.743 178.799 36.6268 176.881 38.3053C174.964 39.9838 172.021 39.8212 170.308 37.9422Z" fill="#1CF6EA" fill-opacity="0.37"/>
<path d="M246.862 35.0511C246.862 36.4508 245.704 37.5855 244.276 37.5855C242.847 37.5855 241.69 36.4508 241.69 35.0511C241.69 33.6514 242.847 32.5167 244.276 32.5167C245.704 32.5167 246.862 33.6514 246.862 35.0511Z" fill="#CB26FF" fill-opacity="0.3"/>
<path d="M400.809 361.486C399.44 361.883 398.001 361.117 397.596 359.775C397.191 358.433 397.972 357.023 399.342 356.626C400.712 356.229 402.151 356.995 402.556 358.337C402.961 359.679 402.179 361.089 400.809 361.486Z" fill="#CB26FF" fill-opacity="0.3"/>
<path d="M410.909 134.506C409.265 134.982 407.539 134.063 407.053 132.452C406.566 130.841 407.505 129.15 409.148 128.673C410.792 128.197 412.518 129.116 413.005 130.727C413.491 132.337 412.553 134.029 410.909 134.506Z" fill="#155F80" fill-opacity="0.8"/>
<path d="M588.241 380.237C588.241 382.477 586.389 384.292 584.103 384.292C581.818 384.292 579.966 382.477 579.966 380.237C579.966 377.998 581.818 376.182 584.103 376.182C586.389 376.182 588.241 377.998 588.241 380.237Z" fill="#0B0F95" fill-opacity="0.8"/>
<path d="M139.276 343.235C139.276 344.635 138.118 345.769 136.69 345.769C135.261 345.769 134.103 344.635 134.103 343.235C134.103 341.835 135.261 340.701 136.69 340.701C138.118 340.701 139.276 341.835 139.276 343.235Z" fill="#CB26FF" fill-opacity="0.3"/>
<path d="M252.388 383.994C250.471 384.549 248.456 383.477 247.889 381.598C247.322 379.718 248.417 377.745 250.334 377.189C252.252 376.633 254.266 377.706 254.833 379.585C255.4 381.464 254.306 383.438 252.388 383.994Z" fill="#CB26FF" fill-opacity="0.3"/>
<path d="M169.085 375.679C167.715 376.076 166.277 375.31 165.871 373.968C165.466 372.625 166.248 371.216 167.618 370.819C168.987 370.421 170.426 371.188 170.831 372.53C171.237 373.872 170.455 375.282 169.085 375.679Z" fill="#CB26FF" fill-opacity="0.3"/>
<path d="M120.219 374.768C118.576 375.244 116.849 374.325 116.363 372.714C115.877 371.103 116.815 369.411 118.459 368.935C120.102 368.458 121.829 369.378 122.315 370.989C122.801 372.599 121.863 374.291 120.219 374.768Z" fill="#155F80" fill-opacity="0.8"/>
<path d="M59.6207 68.5053C59.6207 69.3452 58.9259 70.026 58.0689 70.026C57.2119 70.026 56.5172 69.3452 56.5172 68.5053C56.5172 67.6655 57.2119 66.9847 58.0689 66.9847C58.9259 66.9847 59.6207 67.6655 59.6207 68.5053Z" fill="#155F80" fill-opacity="0.8"/>
<path d="M28.5863 49.7507C28.5863 50.8705 27.66 51.7783 26.5173 51.7783C25.3747 51.7783 24.4484 50.8705 24.4484 49.7507C24.4484 48.631 25.3747 47.7232 26.5173 47.7232C27.66 47.7232 28.5863 48.631 28.5863 49.7507Z" fill="#0B0F95" fill-opacity="0.8"/>
<path d="M592.379 153.154C592.379 154.274 591.453 155.182 590.31 155.182C589.168 155.182 588.241 154.274 588.241 153.154C588.241 152.035 589.168 151.127 590.31 151.127C591.453 151.127 592.379 152.035 592.379 153.154Z" fill="#0B0F95" fill-opacity="0.8"/>
<path d="M282.034 61.9159C282.034 63.5955 280.645 64.9571 278.931 64.9571C277.217 64.9571 275.828 63.5955 275.828 61.9159C275.828 60.2362 277.217 58.8746 278.931 58.8746C280.645 58.8746 282.034 60.2362 282.034 61.9159Z" fill="#CB26FF" fill-opacity="0.3"/>
<path d="M12.7049 211.176C11.7633 211.019 11.148 209.994 11.3305 208.888C11.513 207.781 12.4243 207.011 13.3659 207.168C14.3075 207.325 14.9228 208.35 14.7403 209.456C14.5578 210.563 13.6465 211.333 12.7049 211.176Z" fill="#1CF6EA" fill-opacity="0.37"/>
<path d="M26.7605 222.634C25.7522 223.453 24.3743 223.148 23.683 221.953C22.9918 220.757 23.2488 219.123 24.2571 218.303C25.2655 217.483 26.6433 217.788 27.3346 218.984C28.0259 220.18 27.7688 221.814 26.7605 222.634Z" fill="#1CF6EA" fill-opacity="0.37"/>
<path d="M343.933 360.75C343.456 359.991 343.502 358.826 344.036 358.148C344.571 357.47 345.391 357.536 345.868 358.295C346.345 359.054 346.299 360.219 345.765 360.897C345.23 361.575 344.41 361.509 343.933 360.75Z" fill="#CB26FF" fill-opacity="0.3"/>
<path d="M349.602 211.067C350.354 209.876 351.948 209.508 353.162 210.245C354.377 210.981 354.752 212.543 354.001 213.734C353.249 214.924 351.655 215.292 350.441 214.555C349.226 213.819 348.851 212.257 349.602 211.067Z" fill="#CB26FF" fill-opacity="0.3"/>
<path d="M315.957 334.471C316.409 333.432 317.369 333.111 318.1 333.754C318.831 334.397 319.057 335.759 318.604 336.798C318.152 337.836 317.193 338.157 316.462 337.515C315.731 336.872 315.505 335.509 315.957 334.471Z" fill="#155F80" fill-opacity="0.8"/>
<path d="M417.884 243.668C416.885 244.668 415.248 244.685 414.227 243.705C413.207 242.726 413.19 241.121 414.189 240.121C415.188 239.121 416.826 239.104 417.846 240.084C418.867 241.063 418.884 242.668 417.884 243.668Z" fill="#155F80" fill-opacity="0.8"/>
<path d="M501.345 35.5581C501.345 37.7976 499.492 39.6132 497.207 39.6132C494.922 39.6132 493.069 37.7976 493.069 35.5581C493.069 33.3186 494.922 31.5031 497.207 31.5031C499.492 31.5031 501.345 33.3186 501.345 35.5581Z" fill="#CB26FF" fill-opacity="0.3"/>
<defs>
<filter id="filter0_b_62_8" x="-4" y="-4" width="639" height="401" filterUnits="userSpaceOnUse" color-interpolation-filters="sRGB">
<feFlood flood-opacity="0" result="BackgroundImageFix"/>
<feGaussianBlur in="BackgroundImageFix" stdDeviation="2"/>
<feComposite in2="SourceAlpha" operator="in" result="effect1_backgroundBlur_62_8"/>
<feBlend mode="normal" in="SourceGraphic" in2="effect1_backgroundBlur_62_8" result="shape"/>
</filter>
<linearGradient id="paint0_linear_62_8" x1="44.565" y1="255.656" x2="583.396" y2="255.656" gradientUnits="userSpaceOnUse">
<stop stop-color="#0A0724"/>
<stop offset="0.2" stop-color="#12083E"/>
<stop offset="0.4" stop-color="#150446"/>
<stop offset="0.607702" stop-color="#140545"/>
<stop offset="0.8" stop-color="#10073B"/>
<stop offset="1" stop-color="#0A0724"/>
</linearGradient>
</defs>
</svg>
