<svg width="623" height="382" viewBox="0 0 623 382" preserveAspectRatio="none" fill="none" xmlns="http://www.w3.org/2000/svg">
<g style="mix-blend-mode:darken" filter="url(#filter0_b_55_105)">
<path d="M0 0H623V382H0V0Z" fill="url(#paint0_linear_55_105)"/>
</g>
<g clip-path="url(#clip0_55_105)">
<path d="M55.9979 114.352C54.3422 112.498 54.5025 109.654 56.356 107.998C58.2095 106.342 61.0542 106.503 62.7099 108.356C64.3656 110.21 64.2052 113.054 62.3518 114.71C60.4983 116.366 57.6536 116.205 55.9979 114.352Z" fill="#FC5BFF" fill-opacity="0.4"/>
<path d="M113.435 154.202C113.072 155.245 111.933 155.797 110.889 155.435C109.846 155.072 109.294 153.933 109.656 152.889C110.019 151.846 111.159 151.294 112.202 151.656C113.245 152.019 113.797 153.159 113.435 154.202Z" fill="#0B0F95" fill-opacity="0.8"/>
<path d="M212.548 295.563C212.246 293.097 214 290.851 216.466 290.548C218.933 290.246 221.178 292 221.481 294.466C221.784 296.933 220.03 299.178 217.563 299.481C215.097 299.784 212.851 298.03 212.548 295.563Z" fill="#155F80" fill-opacity="0.8"/>
<path d="M100.912 252.043C101.416 249.81 103.442 248.315 105.438 248.703C107.433 249.092 108.642 251.217 108.138 253.45C107.635 255.683 105.609 257.179 103.613 256.79C101.618 256.402 100.408 254.277 100.912 252.043Z" fill="#CB26FF" fill-opacity="0.3"/>
<path d="M199.07 222.11C198.071 223.485 196.308 223.789 195.131 222.789C193.954 221.79 193.81 219.865 194.808 218.49C195.807 217.115 197.571 216.81 198.748 217.81C199.925 218.81 200.069 220.735 199.07 222.11Z" fill="#155F80" fill-opacity="0.8"/>
<path d="M61.2864 302.953C62.2443 301.274 64.341 300.758 65.9694 301.799C67.5978 302.841 68.1413 305.046 67.1833 306.725C66.2253 308.404 64.1287 308.921 62.5003 307.879C60.8719 306.838 60.3284 304.632 61.2864 302.953Z" fill="#0B0F95" fill-opacity="0.8"/>
<path d="M160.949 236.005C161.091 237.113 160.38 238.206 159.361 238.446C158.342 238.687 157.4 237.984 157.258 236.877C157.116 235.769 157.826 234.676 158.845 234.436C159.864 234.195 160.806 234.898 160.949 236.005Z" fill="#0B0F95" fill-opacity="0.8"/>
<path d="M115 78C115 79.6569 113.657 81 112 81C110.343 81 109 79.6569 109 78C109 76.3431 110.343 75 112 75C113.657 75 115 76.3431 115 78Z" fill="#155F80" fill-opacity="0.8"/>
<path d="M265 195.5C265 196.328 264.328 197 263.5 197C262.672 197 262 196.328 262 195.5C262 194.672 262.672 194 263.5 194C264.328 194 265 194.672 265 195.5Z" fill="#155F80" fill-opacity="0.8"/>
<path d="M241 126C241 127.657 239.657 129 238 129C236.343 129 235 127.657 235 126C235 124.343 236.343 123 238 123C239.657 123 241 124.343 241 126Z" fill="#CB26FF" fill-opacity="0.3"/>
<path d="M235 177C235 178.105 234.105 179 233 179C231.895 179 231 178.105 231 177C231 175.895 231.895 175 233 175C234.105 175 235 175.895 235 177Z" fill="#0B0F95" fill-opacity="0.8"/>
<path d="M609 252.5C609 253.328 608.328 254 607.5 254C606.672 254 606 253.328 606 252.5C606 251.672 606.672 251 607.5 251C608.328 251 609 251.672 609 252.5Z" fill="#155F80" fill-opacity="0.8"/>
<path d="M579 234C579 235.105 578.105 236 577 236C575.895 236 575 235.105 575 234C575 232.895 575.895 232 577 232C578.105 232 579 232.895 579 234Z" fill="#0B0F95" fill-opacity="0.8"/>
<path d="M271.867 254.645C270.501 255.582 268.633 255.234 267.696 253.867C266.76 252.5 267.108 250.633 268.474 249.696C269.841 248.759 271.708 249.108 272.645 250.474C273.582 251.841 273.234 253.708 271.867 254.645Z" fill="#CB26FF" fill-opacity="0.3"/>
<path d="M148.94 114.457C147.869 113.587 147.706 112.012 148.576 110.94C149.447 109.869 151.021 109.706 152.093 110.576C153.165 111.447 153.328 113.021 152.457 114.093C151.587 115.165 150.012 115.328 148.94 114.457Z" fill="#CB26FF" fill-opacity="0.3"/>
<path d="M524.781 70.5C524.781 71.3284 524.11 72 523.281 72C522.453 72 521.781 71.3284 521.781 70.5C521.781 69.6716 522.453 69 523.281 69C524.11 69 524.781 69.6716 524.781 70.5Z" fill="#155F80" fill-opacity="0.8"/>
<path d="M365.781 56C365.781 57.1046 364.886 58 363.781 58C362.677 58 361.781 57.1046 361.781 56C361.781 54.8954 362.677 54 363.781 54C364.886 54 365.781 54.8954 365.781 56Z" fill="#0B0F95" fill-opacity="0.8"/>
<path d="M365.781 104.5C365.781 106.985 363.766 109 361.281 109C358.796 109 356.781 106.985 356.781 104.5C356.781 102.015 358.796 100 361.281 100C363.766 100 365.781 102.015 365.781 104.5Z" fill="#1CF6EA" fill-opacity="0.37"/>
<path d="M540.781 100C540.781 101.657 539.438 103 537.781 103C536.124 103 534.781 101.657 534.781 100C534.781 98.3431 536.124 97 537.781 97C539.438 97 540.781 98.3431 540.781 100Z" fill="#CB26FF" fill-opacity="0.3"/>
<path d="M448.781 66.5C448.781 68.433 447.214 70 445.281 70C443.348 70 441.781 68.433 441.781 66.5C441.781 64.567 443.348 63 445.281 63C447.214 63 448.781 64.567 448.781 66.5Z" fill="#0B0F95" fill-opacity="0.8"/>
<path d="M409.781 32C409.781 34.2091 407.99 36 405.781 36C403.572 36 401.781 34.2091 401.781 32C401.781 29.7909 403.572 28 405.781 28C407.99 28 409.781 29.7909 409.781 32Z" fill="#CB26FF" fill-opacity="0.3"/>
<path d="M504.781 107C504.781 108.105 503.886 109 502.781 109C501.677 109 500.781 108.105 500.781 107C500.781 105.895 501.677 105 502.781 105C503.886 105 504.781 105.895 504.781 107Z" fill="#0B0F95" fill-opacity="0.8"/>
<path d="M544.861 -4.87777C546.314 -7.22602 549.395 -7.95177 551.744 -6.49877C554.092 -5.04578 554.818 -1.96426 553.365 0.383985C551.912 2.73223 548.83 3.45798 546.482 2.00498C544.134 0.55199 543.408 -2.52953 544.861 -4.87777Z" fill="#CB26FF" fill-opacity="0.3"/>
<path d="M572.845 54.4433C571.741 53.2077 571.848 51.3112 573.083 50.2074C574.319 49.1036 576.216 49.2105 577.319 50.4461C578.423 51.6818 578.316 53.5783 577.081 54.6821C575.845 55.7858 573.948 55.6789 572.845 54.4433Z" fill="#155F80" fill-opacity="0.8"/>
<path d="M540.584 216.701C540.032 216.083 540.085 215.135 540.703 214.583C541.321 214.031 542.269 214.085 542.821 214.702C543.373 215.32 543.32 216.269 542.702 216.82C542.084 217.372 541.136 217.319 540.584 216.701Z" fill="#155F80" fill-opacity="0.8"/>
<path d="M446.999 198.234C445.895 196.999 446.002 195.102 447.237 193.999C448.473 192.895 450.369 193.002 451.473 194.237C452.577 195.473 452.47 197.369 451.234 198.473C449.999 199.577 448.102 199.47 446.999 198.234Z" fill="#CB26FF" fill-opacity="0.3"/>
<path d="M500.332 191.156C499.597 190.333 499.668 189.068 500.492 188.332C501.315 187.597 502.58 187.668 503.316 188.492C504.051 189.315 503.98 190.58 503.156 191.315C502.333 192.051 501.068 191.98 500.332 191.156Z" fill="#0B0F95" fill-opacity="0.8"/>
<path d="M449.584 326.701C449.032 326.083 449.085 325.135 449.703 324.583C450.321 324.031 451.269 324.085 451.821 324.702C452.373 325.32 452.32 326.269 451.702 326.82C451.084 327.372 450.136 327.319 449.584 326.701Z" fill="#155F80" fill-opacity="0.8"/>
<path d="M415.332 283.156C414.597 282.333 414.668 281.068 415.492 280.332C416.315 279.597 417.58 279.668 418.316 280.492C419.051 281.315 418.98 282.58 418.156 283.316C417.333 284.051 416.068 283.98 415.332 283.156Z" fill="#0B0F95" fill-opacity="0.8"/>
<path d="M379.717 236.64C378.216 235.421 377.988 233.217 379.207 231.717C380.426 230.216 382.63 229.988 384.13 231.207C385.631 232.426 385.859 234.63 384.64 236.13C383.421 237.631 381.217 237.859 379.717 236.64Z" fill="#CB26FF" fill-opacity="0.3"/>
<path d="M571 286C571 288.209 569.209 290 567 290C564.791 290 563 288.209 563 286C563 283.791 564.791 282 567 282C569.209 282 571 283.791 571 286Z" fill="#CB26FF" fill-opacity="0.3"/>
<path d="M512 341C512 342.657 510.657 344 509 344C507.343 344 506 342.657 506 341C506 339.343 507.343 338 509 338C510.657 338 512 339.343 512 341Z" fill="#155F80" fill-opacity="0.8"/>
<path d="M501.801 257.968C499.751 259.373 496.95 258.85 495.545 256.801C494.139 254.751 494.662 251.95 496.712 250.545C498.761 249.139 501.562 249.662 502.968 251.712C504.373 253.761 503.85 256.562 501.801 257.968Z" fill="#1CF6EA" fill-opacity="0.37"/>
<path d="M210 54.3456C210 55.7263 208.881 56.8456 207.5 56.8456C206.119 56.8456 205 55.7263 205 54.3456C205 52.9649 206.119 51.8456 207.5 51.8456C208.881 51.8456 210 52.9649 210 54.3456Z" fill="#CB26FF" fill-opacity="0.3"/>
<path d="M162 52.3456C162 53.174 161.328 53.8456 160.5 53.8456C159.672 53.8456 159 53.174 159 52.3456C159 51.5172 159.672 50.8456 160.5 50.8456C161.328 50.8456 162 51.5172 162 52.3456Z" fill="#155F80" fill-opacity="0.8"/>
<path d="M182.998 24.3518C181.342 22.4983 181.503 19.6536 183.356 17.9979C185.209 16.3422 188.054 16.5026 189.71 18.356C191.366 20.2095 191.205 23.0542 189.352 24.7099C187.498 26.3656 184.654 26.2052 182.998 24.3518Z" fill="#1CF6EA" fill-opacity="0.37"/>
<path d="M257 21.5C257 22.8807 255.881 24 254.5 24C253.119 24 252 22.8807 252 21.5C252 20.1193 253.119 19 254.5 19C255.881 19 257 20.1193 257 21.5Z" fill="#CB26FF" fill-opacity="0.3"/>
<path d="M405.816 343.504C404.492 343.895 403.101 343.14 402.709 341.816C402.318 340.492 403.073 339.101 404.397 338.709C405.721 338.317 407.112 339.073 407.504 340.397C407.895 341.721 407.14 343.112 405.816 343.504Z" fill="#CB26FF" fill-opacity="0.3"/>
<path d="M415.579 119.605C413.99 120.075 412.321 119.168 411.851 117.579C411.381 115.99 412.288 114.321 413.877 113.851C415.466 113.381 417.135 114.288 417.605 115.877C418.074 117.466 417.168 119.135 415.579 119.605Z" fill="#155F80" fill-opacity="0.8"/>
<path d="M587 362C587 364.209 585.209 366 583 366C580.791 366 579 364.209 579 362C579 359.791 580.791 358 583 358C585.209 358 587 359.791 587 362Z" fill="#0B0F95" fill-opacity="0.8"/>
<path d="M153 325.5C153 326.881 151.881 328 150.5 328C149.119 328 148 326.881 148 325.5C148 324.119 149.119 323 150.5 323C151.881 323 153 324.119 153 325.5Z" fill="#CB26FF" fill-opacity="0.3"/>
<path d="M262.342 365.705C260.488 366.254 258.541 365.195 257.993 363.342C257.445 361.488 258.503 359.541 260.356 358.993C262.21 358.444 264.157 359.503 264.705 361.356C265.254 363.21 264.195 365.157 262.342 365.705Z" fill="#CB26FF" fill-opacity="0.3"/>
<path d="M181.816 357.504C180.492 357.895 179.101 357.14 178.709 355.816C178.317 354.492 179.073 353.101 180.397 352.709C181.721 352.317 183.112 353.073 183.504 354.397C183.895 355.721 183.14 357.112 181.816 357.504Z" fill="#CB26FF" fill-opacity="0.3"/>
<path d="M134.579 356.605C132.99 357.075 131.321 356.168 130.851 354.579C130.381 352.99 131.288 351.321 132.877 350.851C134.466 350.381 136.135 351.288 136.605 352.877C137.074 354.466 136.168 356.135 134.579 356.605Z" fill="#155F80" fill-opacity="0.8"/>
<path d="M76 54.5C76 55.3284 75.3284 56 74.5 56C73.6716 56 73 55.3284 73 54.5C73 53.6716 73.6716 53 74.5 53C75.3284 53 76 53.6716 76 54.5Z" fill="#155F80" fill-opacity="0.8"/>
<path d="M46 36C46 37.1046 45.1046 38 44 38C42.8954 38 42 37.1046 42 36C42 34.8954 42.8954 34 44 34C45.1046 34 46 34.8954 46 36Z" fill="#0B0F95" fill-opacity="0.8"/>
<path d="M591 138C591 139.105 590.105 140 589 140C587.895 140 587 139.105 587 138C587 136.895 587.895 136 589 136C590.105 136 591 136.895 591 138Z" fill="#0B0F95" fill-opacity="0.8"/>
<path d="M291 48C291 49.6569 289.657 51 288 51C286.343 51 285 49.6569 285 48C285 46.3431 286.343 45 288 45C289.657 45 291 46.3431 291 48Z" fill="#CB26FF" fill-opacity="0.3"/>
<path d="M30.6481 195.234C29.7379 195.079 29.143 194.068 29.3195 192.977C29.4959 191.885 30.3768 191.126 31.287 191.281C32.1972 191.435 32.7921 192.446 32.6157 193.538C32.4392 194.629 31.5583 195.389 30.6481 195.234Z" fill="#1CF6EA" fill-opacity="0.37"/>
<path d="M44.2351 206.536C43.2604 207.344 41.9285 207.044 41.2603 205.864C40.592 204.685 40.8405 203.073 41.8152 202.264C42.7899 201.456 44.1218 201.756 44.7901 202.936C45.4583 204.115 45.2099 205.727 44.2351 206.536Z" fill="#1CF6EA" fill-opacity="0.37"/>
<path d="M350.835 342.778C350.374 342.029 350.419 340.88 350.935 340.211C351.452 339.542 352.244 339.607 352.706 340.356C353.167 341.104 353.122 342.253 352.606 342.922C352.089 343.591 351.297 343.526 350.835 342.778Z" fill="#CB26FF" fill-opacity="0.3"/>
<path d="M356.315 195.126C357.042 193.952 358.583 193.589 359.757 194.315C360.931 195.042 361.294 196.583 360.567 197.757C359.841 198.931 358.3 199.294 357.126 198.567C355.952 197.841 355.589 196.3 356.315 195.126Z" fill="#CB26FF" fill-opacity="0.3"/>
<path d="M323.792 316.855C324.229 315.83 325.156 315.514 325.863 316.148C326.57 316.782 326.788 318.126 326.351 319.15C325.914 320.175 324.986 320.491 324.28 319.858C323.573 319.224 323.355 317.879 323.792 316.855Z" fill="#155F80" fill-opacity="0.8"/>
<path d="M422.322 227.285C421.355 228.271 419.773 228.288 418.786 227.321C417.8 226.355 417.783 224.773 418.749 223.786C419.715 222.8 421.298 222.783 422.285 223.749C423.271 224.715 423.288 226.298 422.322 227.285Z" fill="#155F80" fill-opacity="0.8"/>
</g>
<path d="M512 32C512 34.2091 510.209 36 508 36C505.791 36 504 34.2091 504 32C504 29.7909 505.791 28 508 28C510.209 28 512 29.7909 512 32Z" fill="#CB26FF" fill-opacity="0.3"/>
<defs>
<filter id="filter0_b_55_105" x="-4" y="-4" width="631" height="390" filterUnits="userSpaceOnUse" color-interpolation-filters="sRGB">
<feFlood flood-opacity="0" result="BackgroundImageFix"/>
<feGaussianBlur in="BackgroundImageFix" stdDeviation="2"/>
<feComposite in2="SourceAlpha" operator="in" result="effect1_backgroundBlur_55_105"/>
<feBlend mode="normal" in="SourceGraphic" in2="effect1_backgroundBlur_55_105" result="shape"/>
</filter>
<linearGradient id="paint0_linear_55_105" x1="44" y1="248.5" x2="576" y2="248.5" gradientUnits="userSpaceOnUse">
<stop stop-color="#0A0724"/>
<stop offset="0.2" stop-color="#12083E"/>
<stop offset="0.4" stop-color="#150446"/>
<stop offset="0.607702" stop-color="#140545"/>
<stop offset="0.8" stop-color="#10073B"/>
<stop offset="1" stop-color="#0A0724"/>
</linearGradient>
<clipPath id="clip0_55_105">
<rect width="623" height="382" fill="white"/>
</clipPath>
</defs>
</svg>
