<svg xmlns="http://www.w3.org/2000/svg" xmlns:svg="http://www.w3.org/2000/svg" fill="none" version="1.1" id="svg31" viewBox="176.07 129.99 240.07 40.55">
  <path d="m 281.59865,160.63838 c 0.023,0.14 0.035,0.28 0.035,0.42 0.023,0.117 0.035,0.257 0.035,0.42 0,0.28 -0.082,0.537 -0.245,0.77 -0.07,0.117 -0.163,0.233 -0.28,0.35 -0.117,0.093 -0.257,0.175 -0.42,0.245 -0.583,0.327 -1.202,0.443 -1.855,0.35 -0.327,-0.093 -0.618,-0.245 -0.875,-0.455 -0.047,-0.047 -0.082,-0.07 -0.105,-0.07 -0.023,-0.023 -0.047,-0.058 -0.07,-0.105 -0.023,-0.023 -0.047,-0.047 -0.07,-0.07 -0.023,-0.047 -0.058,-0.082 -0.105,-0.105 -0.117,-0.117 -0.21,-0.222 -0.28,-0.315 -0.07,-0.117 -0.14,-0.233 -0.21,-0.35 -0.047,-0.117 -0.105,-0.222 -0.175,-0.315 -0.047,-0.117 -0.105,-0.233 -0.175,-0.35 -0.047,-0.093 -0.093,-0.175 -0.14,-0.245 -0.047,-0.093 -0.082,-0.187 -0.105,-0.28 -0.093,-0.21 -0.152,-0.397 -0.175,-0.56 l -0.735,-1.715 c -1.61,0 -3.22,0.012 -4.83,0.035 -1.587,0 -3.185,-0.012 -4.795,-0.035 l -0.735,1.715 c -0.047,0.093 -0.082,0.187 -0.105,0.28 0,0.093 -0.023,0.187 -0.07,0.28 -0.047,0.093 -0.093,0.187 -0.14,0.28 -0.023,0.07 -0.058,0.152 -0.105,0.245 -0.07,0.117 -0.14,0.233 -0.21,0.35 -0.047,0.093 -0.105,0.198 -0.175,0.315 -0.047,0.117 -0.105,0.233 -0.175,0.35 -0.07,0.093 -0.163,0.198 -0.28,0.315 -0.047,0.023 -0.082,0.058 -0.105,0.105 -0.023,0.023 -0.047,0.047 -0.07,0.07 -0.023,0.047 -0.047,0.082 -0.07,0.105 -0.023,0 -0.058,0.023 -0.105,0.07 -0.257,0.21 -0.548,0.362 -0.875,0.455 -0.653,0.093 -1.272,-0.023 -1.855,-0.35 -0.163,-0.07 -0.303,-0.152 -0.42,-0.245 -0.117,-0.117 -0.21,-0.233 -0.28,-0.35 -0.163,-0.233 -0.245,-0.49 -0.245,-0.77 0,-0.163 0,-0.303 0,-0.42 0.023,-0.14 0.047,-0.28 0.07,-0.42 0.047,-0.21 0.105,-0.42 0.175,-0.63 0.07,-0.21 0.105,-0.315 0.105,-0.315 l 7.28,-17.92 0.21,-0.56 c 0.047,-0.14 0.105,-0.268 0.175,-0.385 0.07,-0.117 0.128,-0.257 0.175,-0.42 0.117,-0.303 0.245,-0.572 0.385,-0.805 0.07,-0.14 0.152,-0.268 0.245,-0.385 0.093,-0.117 0.187,-0.233 0.28,-0.35 0.14,-0.187 0.338,-0.338 0.595,-0.455 0.327,-0.117 0.7,-0.175 1.12,-0.175 0.443,0 0.828,0.058 1.155,0.175 0.257,0.117 0.455,0.268 0.595,0.455 0.163,0.21 0.338,0.455 0.525,0.735 0.14,0.233 0.268,0.502 0.385,0.805 0.047,0.163 0.105,0.303 0.175,0.42 0.07,0.117 0.128,0.245 0.175,0.385 l 0.21,0.56 7.28,17.92 c 0,0 0.035,0.105 0.105,0.315 0.07,0.21 0.128,0.42 0.175,0.63 z m -8.295,-8.575 c -0.303,-0.677 -0.618,-1.377 -0.945,-2.1 -0.303,-0.723 -0.63,-1.458 -0.98,-2.205 -0.093,-0.21 -0.187,-0.42 -0.28,-0.63 -0.093,-0.233 -0.187,-0.455 -0.28,-0.665 -0.07,0.21 -0.152,0.432 -0.245,0.665 -0.093,0.21 -0.187,0.42 -0.28,0.63 -0.35,0.747 -0.688,1.482 -1.015,2.205 -0.303,0.723 -0.607,1.423 -0.91,2.1 l -0.63,1.54 h 6.195 z m 19.608,7.245 0.035,-2.765 0.035,-5.145 c 0.023,-0.747 0.035,-1.517 0.035,-2.31 0,-0.793 0,-1.61 0,-2.45 0,-0.84 0,-1.587 0,-2.24 0,-0.653 0.023,-1.388 0.07,-2.205 v -0.14 c 0.023,-0.233 0.035,-0.467 0.035,-0.7 0.023,-0.257 0.035,-0.513 0.035,-0.77 0.023,-0.42 0.151,-0.875 0.385,-1.365 0.163,-0.327 0.408,-0.607 0.735,-0.84 0.373,-0.187 0.735,-0.28 1.085,-0.28 0.186,0 0.35,0.012 0.49,0.035 0.163,0 0.315,0.012 0.455,0.035 0.303,0.047 0.571,0.187 0.805,0.42 0.14,0.117 0.268,0.303 0.385,0.56 0.046,0.14 0.081,0.28 0.105,0.42 0.046,0.117 0.081,0.245 0.105,0.385 0.023,0.163 0.035,0.315 0.035,0.455 0.023,0.14 0.035,0.28 0.035,0.42 0,0.163 -0.012,0.315 -0.035,0.455 0,0.117 0,0.245 0,0.385 v 0.595 l -0.21,18.165 v 0.35 c 0,0.07 -0.012,0.163 -0.035,0.28 0,0.093 -0.012,0.21 -0.035,0.35 -0.047,0.117 -0.094,0.245 -0.14,0.385 -0.024,0.117 -0.059,0.245 -0.105,0.385 -0.07,0.117 -0.152,0.233 -0.245,0.35 -0.07,0.093 -0.164,0.187 -0.28,0.28 -0.187,0.187 -0.49,0.315 -0.91,0.385 -0.63,0.14 -1.225,0.082 -1.785,-0.175 -0.28,-0.187 -0.479,-0.42 -0.595,-0.7 -0.07,-0.07 -0.105,-0.14 -0.105,-0.21 -0.024,-0.047 -0.047,-0.082 -0.07,-0.105 -0.024,-0.023 -0.047,-0.058 -0.07,-0.105 -0.047,-0.117 -0.082,-0.233 -0.105,-0.35 -0.024,-0.14 -0.035,-0.28 -0.035,-0.42 -0.024,-0.117 -0.047,-0.233 -0.07,-0.35 0,-0.117 -0.012,-0.233 -0.035,-0.35 -0.024,-0.187 -0.024,-0.385 0,-0.595 z m 34.134,2.17 c 0.024,0.233 0,0.455 -0.07,0.665 -0.046,0.14 -0.116,0.257 -0.21,0.35 -0.07,0.093 -0.163,0.187 -0.28,0.28 -0.21,0.14 -0.466,0.268 -0.77,0.385 -0.186,0.047 -0.373,0.082 -0.56,0.105 -0.163,0.047 -0.338,0.047 -0.525,0 -0.373,-0.023 -0.7,-0.163 -0.98,-0.42 -0.396,-0.327 -0.723,-0.688 -0.98,-1.085 -0.116,-0.187 -0.245,-0.397 -0.385,-0.63 -0.14,-0.233 -0.268,-0.478 -0.385,-0.735 l -3.885,-7.385 c -0.186,0 -0.373,0.012 -0.56,0.035 -0.186,0 -0.373,0.012 -0.56,0.035 -0.49,0.047 -0.956,0.058 -1.4,0.035 -0.42,-0.023 -0.863,-0.023 -1.33,0 h -0.665 v 6.335 c 0,0.187 -0.011,0.362 -0.035,0.525 0,0.163 0,0.338 0,0.525 0,0.117 -0.011,0.268 -0.035,0.455 0,0.187 -0.011,0.362 -0.035,0.525 -0.046,0.257 -0.151,0.525 -0.315,0.805 -0.163,0.257 -0.385,0.478 -0.665,0.665 -0.49,0.303 -1.085,0.385 -1.785,0.245 -0.303,-0.07 -0.595,-0.187 -0.875,-0.35 -0.093,-0.07 -0.175,-0.152 -0.245,-0.245 -0.07,-0.117 -0.128,-0.233 -0.175,-0.35 -0.046,-0.117 -0.093,-0.233 -0.14,-0.35 -0.023,-0.14 -0.058,-0.268 -0.105,-0.385 -0.07,-0.233 -0.105,-0.455 -0.105,-0.665 v -19.88 c 0,-0.14 0,-0.28 0,-0.42 0.024,-0.163 0.047,-0.303 0.07,-0.42 0.024,-0.257 0.105,-0.513 0.245,-0.77 0.07,-0.28 0.187,-0.478 0.35,-0.595 0.14,-0.14 0.35,-0.257 0.63,-0.35 0.304,-0.117 0.735,-0.163 1.295,-0.14 1.05,0.023 2.089,0.035 3.115,0.035 1.027,0 2.054,0.023 3.08,0.07 0.677,0.047 1.389,0.128 2.135,0.245 0.77,0.093 1.482,0.268 2.135,0.525 0.42,0.163 0.805,0.327 1.155,0.49 0.444,0.257 0.794,0.502 1.05,0.735 0.817,0.747 1.435,1.645 1.855,2.695 0.42,1.05 0.63,2.112 0.63,3.185 0,1.26 -0.303,2.415 -0.91,3.465 -0.583,1.05 -1.528,1.832 -2.835,2.345 -0.046,0.047 -0.116,0.082 -0.21,0.105 -0.07,0 -0.128,0.012 -0.175,0.035 l 3.22,6.475 0.315,0.56 c 0.047,0.093 0.105,0.198 0.175,0.315 0.07,0.117 0.129,0.233 0.175,0.35 0.07,0.117 0.129,0.245 0.175,0.385 0.07,0.14 0.14,0.268 0.21,0.385 0.07,0.327 0.129,0.595 0.175,0.805 z m -8.75,-12.46 c 0.42,0 0.817,-0.07 1.19,-0.21 0.397,-0.163 0.747,-0.373 1.05,-0.63 0.327,-0.257 0.595,-0.548 0.805,-0.875 0.21,-0.35 0.327,-0.723 0.35,-1.12 0.094,-1.167 -0.21,-2.03 -0.91,-2.59 -0.7,-0.583 -1.621,-0.898 -2.765,-0.945 -0.676,-0.047 -1.423,-0.07 -2.24,-0.07 -0.793,0 -1.551,0 -2.275,0 0.024,0.957 0.024,1.937 0,2.94 0,0.98 0,2.147 0,3.5 z m 43.914,-9.38 c 0.093,0.443 0.093,0.91 0,1.4 -0.047,0.233 -0.093,0.467 -0.14,0.7 -0.023,0.21 -0.058,0.432 -0.105,0.665 l -0.035,0.14 c -0.327,1.447 -0.7,2.975 -1.12,4.585 -0.397,1.587 -0.758,3.092 -1.085,4.515 -0.28,1.167 -0.572,2.45 -0.875,3.85 -0.303,1.4 -0.618,2.683 -0.945,3.85 -0.117,0.397 -0.245,0.793 -0.385,1.19 -0.117,0.397 -0.268,0.793 -0.455,1.19 -0.163,0.35 -0.362,0.665 -0.595,0.945 -0.21,0.257 -0.455,0.443 -0.735,0.56 -0.28,0.14 -0.583,0.187 -0.91,0.14 -0.303,-0.023 -0.642,-0.163 -1.015,-0.42 -0.56,-0.397 -0.98,-0.945 -1.26,-1.645 -0.257,-0.7 -0.525,-1.342 -0.805,-1.925 -0.093,-0.163 -0.233,-0.525 -0.42,-1.085 -0.187,-0.56 -0.385,-1.167 -0.595,-1.82 -0.21,-0.677 -0.42,-1.318 -0.63,-1.925 -0.187,-0.63 -0.35,-1.097 -0.49,-1.4 -0.21,0.513 -0.42,1.097 -0.63,1.75 -0.21,0.653 -0.408,1.295 -0.595,1.925 -0.187,0.63 -0.362,1.202 -0.525,1.715 -0.14,0.49 -0.245,0.852 -0.315,1.085 -0.187,0.467 -0.397,0.98 -0.63,1.54 -0.21,0.56 -0.478,1.038 -0.805,1.435 -0.303,0.397 -0.677,0.653 -1.12,0.77 -0.443,0.14 -0.968,0.012 -1.575,-0.385 -0.467,-0.28 -0.793,-0.677 -0.98,-1.19 -0.117,-0.327 -0.233,-0.642 -0.35,-0.945 -0.117,-0.303 -0.21,-0.618 -0.28,-0.945 l -0.7,-2.625 -1.435,-5.635 c -0.187,-0.723 -0.373,-1.458 -0.56,-2.205 -0.163,-0.77 -0.362,-1.563 -0.595,-2.38 -0.117,-0.397 -0.222,-0.782 -0.315,-1.155 -0.07,-0.397 -0.152,-0.817 -0.245,-1.26 -0.07,-0.467 -0.163,-0.992 -0.28,-1.575 -0.093,-0.583 -0.21,-1.26 -0.35,-2.03 -0.047,-0.257 -0.082,-0.49 -0.105,-0.7 0,-0.233 0.023,-0.467 0.07,-0.7 0.047,-0.35 0.21,-0.653 0.49,-0.91 0.117,-0.117 0.257,-0.21 0.42,-0.28 0.163,-0.07 0.338,-0.128 0.525,-0.175 0.28,-0.093 0.572,-0.14 0.875,-0.14 0.28,0 0.572,0.093 0.875,0.28 0.21,0.117 0.373,0.268 0.49,0.455 l 0.42,0.735 c 0.047,0.163 0.093,0.315 0.14,0.455 0.047,0.117 0.093,0.245 0.14,0.385 0.047,0.163 0.082,0.315 0.105,0.455 0.023,0.117 0.047,0.233 0.07,0.35 0.21,1.213 0.467,2.392 0.77,3.535 0.303,1.143 0.583,2.24 0.84,3.29 0.093,0.42 0.21,0.945 0.35,1.575 0.14,0.607 0.28,1.248 0.42,1.925 0.14,0.653 0.28,1.283 0.42,1.89 0.14,0.607 0.28,1.085 0.42,1.435 0.303,-1.05 0.607,-2.1 0.91,-3.15 0.327,-1.05 0.677,-2.112 1.05,-3.185 0.187,-0.56 0.373,-1.062 0.56,-1.505 0.21,-0.467 0.443,-0.852 0.7,-1.155 0.257,-0.303 0.548,-0.502 0.875,-0.595 0.327,-0.093 0.712,-0.058 1.155,0.105 0.397,0.163 0.747,0.513 1.05,1.05 0.303,0.537 0.572,1.085 0.805,1.645 0.21,0.513 0.408,1.062 0.595,1.645 0.21,0.56 0.408,1.12 0.595,1.68 0.21,0.537 0.408,1.05 0.595,1.54 0.187,0.49 0.373,0.91 0.56,1.26 0.07,-0.257 0.152,-0.583 0.245,-0.98 0.093,-0.397 0.187,-0.817 0.28,-1.26 0.117,-0.467 0.222,-0.922 0.315,-1.365 0.093,-0.443 0.187,-0.852 0.28,-1.225 0.303,-1.26 0.618,-2.52 0.945,-3.78 0.327,-1.283 0.642,-2.543 0.945,-3.78 l 0.175,-0.595 c 0.047,-0.117 0.07,-0.233 0.07,-0.35 0.023,-0.14 0.058,-0.292 0.105,-0.455 0.047,-0.14 0.093,-0.268 0.14,-0.385 0.047,-0.14 0.093,-0.292 0.14,-0.455 0.047,-0.117 0.093,-0.233 0.14,-0.35 0.07,-0.14 0.152,-0.268 0.245,-0.385 0.07,-0.117 0.152,-0.21 0.245,-0.28 0.093,-0.07 0.187,-0.128 0.28,-0.175 0.327,-0.187 0.607,-0.28 0.84,-0.28 0.303,0 0.595,0.047 0.875,0.14 0.373,0.07 0.712,0.222 1.015,0.455 0.233,0.233 0.373,0.537 0.42,0.91 z m 15.046,2.8 -0.07,5.495 h 1.4 c 0.956,-0.023 1.808,-0.035 2.555,-0.035 0.746,0 1.575,0.012 2.485,0.035 h 0.175 c 0.28,0 0.548,0.012 0.805,0.035 0.28,0 0.548,0 0.805,0 0.28,0.023 0.548,0.07 0.805,0.14 0.256,0.047 0.513,0.105 0.77,0.175 0.396,0.14 0.723,0.35 0.98,0.63 0.233,0.303 0.35,0.642 0.35,1.015 0,0.117 0,0.257 0,0.42 0,0.14 -0.024,0.268 -0.07,0.385 -0.047,0.257 -0.199,0.49 -0.455,0.7 -0.117,0.163 -0.339,0.28 -0.665,0.35 -0.304,0.093 -0.607,0.152 -0.91,0.175 -0.327,0.07 -0.654,0.105 -0.98,0.105 h -1.645 l -6.475,0.035 -0.07,6.86 6.965,0.07 h 1.645 c 0.186,0 0.361,0 0.525,0 0.163,0 0.315,0.012 0.455,0.035 0.186,0.047 0.35,0.082 0.49,0.105 0.163,0 0.315,0.023 0.455,0.07 0.28,0.093 0.513,0.222 0.7,0.385 0.233,0.233 0.385,0.478 0.455,0.735 0.023,0.117 0.035,0.245 0.035,0.385 0.023,0.117 0.023,0.245 0,0.385 0,0.373 -0.117,0.712 -0.35,1.015 -0.28,0.327 -0.607,0.537 -0.98,0.63 -0.49,0.21 -1.027,0.315 -1.61,0.315 -0.257,0.023 -0.525,0.035 -0.805,0.035 -0.28,0 -0.549,0.012 -0.805,0.035 h -0.21 c -1.82,0.047 -3.71,0.047 -5.67,0 -0.467,0 -0.84,-0.012 -1.12,-0.035 -0.28,0 -0.537,0 -0.77,0 -0.21,0 -0.432,0 -0.665,0 -0.234,0 -0.537,0 -0.91,0 -0.537,0.047 -0.98,-0.047 -1.33,-0.28 -0.257,-0.163 -0.455,-0.385 -0.595,-0.665 -0.07,-0.07 -0.105,-0.14 -0.105,-0.21 -0.024,-0.047 -0.047,-0.082 -0.07,-0.105 -0.024,-0.023 -0.047,-0.058 -0.07,-0.105 -0.047,-0.117 -0.082,-0.233 -0.105,-0.35 -0.024,-0.14 -0.035,-0.268 -0.035,-0.385 -0.024,-0.117 -0.047,-0.233 -0.07,-0.35 0,-0.117 -0.012,-0.233 -0.035,-0.35 v -0.56 c 0,-0.093 0,-0.187 0,-0.28 0.023,-0.093 0.035,-0.187 0.035,-0.28 v -2.73 l 0.07,-5.04 v -4.655 c 0,-0.84 0,-1.587 0,-2.24 0.023,-0.653 0.046,-1.365 0.07,-2.135 v -0.175 c 0.023,-0.257 0.035,-0.49 0.035,-0.7 0.023,-0.233 0.035,-0.467 0.035,-0.7 0.023,-0.467 0.151,-0.922 0.385,-1.365 0.093,-0.187 0.186,-0.35 0.28,-0.49 0.116,-0.14 0.268,-0.257 0.455,-0.35 0.35,-0.21 0.711,-0.315 1.085,-0.315 0.186,0 0.326,0.012 0.42,0.035 v -0.035 c 0.42,0 0.758,0 1.015,0 0.256,0 0.501,0 0.735,0 0.256,0 0.525,0 0.805,0 0.28,-0.023 0.665,-0.035 1.155,-0.035 0.933,-0.023 1.82,-0.035 2.66,-0.035 0.84,0 1.703,0.012 2.59,0.035 h 0.14 c 0.256,0.023 0.525,0.035 0.805,0.035 0.28,0 0.548,0.012 0.805,0.035 0.256,0 0.513,0.035 0.77,0.105 0.256,0.047 0.513,0.117 0.77,0.21 0.396,0.117 0.723,0.315 0.98,0.595 0.21,0.327 0.315,0.653 0.315,0.98 0,0.14 0,0.28 0,0.42 0,0.117 -0.024,0.233 -0.07,0.35 -0.024,0.233 -0.164,0.478 -0.42,0.735 -0.094,0.047 -0.199,0.105 -0.315,0.175 -0.094,0.07 -0.21,0.128 -0.35,0.175 -0.14,0.047 -0.292,0.082 -0.455,0.105 -0.14,0 -0.28,0.012 -0.42,0.035 -0.187,0.047 -0.362,0.07 -0.525,0.07 -0.14,0 -0.304,0 -0.49,0 h -1.575 l -7,0.035 z m 35.554,7.665 c 0.676,0.443 1.248,0.968 1.715,1.575 0.49,0.583 0.875,1.307 1.155,2.17 0.303,0.957 0.455,1.925 0.455,2.905 0.023,0.957 -0.152,1.855 -0.525,2.695 -0.35,0.817 -0.922,1.54 -1.715,2.17 -0.77,0.607 -1.785,1.038 -3.045,1.295 -0.677,0.163 -1.47,0.292 -2.38,0.385 -0.91,0.093 -1.727,0.14 -2.45,0.14 -0.91,0.023 -1.855,0.023 -2.835,0 -0.957,0 -1.89,-0.093 -2.8,-0.28 -0.397,-0.117 -0.689,-0.315 -0.875,-0.595 -0.164,-0.303 -0.28,-0.642 -0.35,-1.015 -0.094,-0.21 -0.14,-0.42 -0.14,-0.63 v -19.88 c 0,-0.653 0.128,-1.155 0.385,-1.505 0.28,-0.373 0.641,-0.642 1.085,-0.805 0.443,-0.187 0.945,-0.292 1.505,-0.315 0.56,-0.047 1.143,-0.07 1.75,-0.07 0.466,0 0.933,0 1.4,0 0.49,-0.023 0.98,-0.023 1.47,0 0.77,0.023 1.563,0.093 2.38,0.21 0.84,0.093 1.633,0.28 2.38,0.56 0.35,0.117 0.723,0.28 1.12,0.49 0.396,0.187 0.711,0.42 0.945,0.7 0.746,0.677 1.295,1.47 1.645,2.38 0.373,0.887 0.536,1.797 0.49,2.73 -0.047,0.91 -0.304,1.785 -0.77,2.625 -0.444,0.84 -1.109,1.528 -1.995,2.065 z m -6.125,9.275 c 0.723,-0.047 1.458,-0.128 2.205,-0.245 0.746,-0.117 1.26,-0.338 1.54,-0.665 0.303,-0.373 0.513,-0.805 0.63,-1.295 0.14,-0.513 0.175,-1.027 0.105,-1.54 -0.047,-0.537 -0.199,-1.038 -0.455,-1.505 -0.234,-0.49 -0.549,-0.875 -0.945,-1.155 -0.537,-0.42 -1.155,-0.688 -1.855,-0.805 -0.7,-0.14 -1.389,-0.21 -2.065,-0.21 -0.327,0 -0.63,0.012 -0.91,0.035 -0.257,0 -0.49,0.035 -0.7,0.105 -0.187,0.047 -0.327,0.152 -0.42,0.315 -0.094,0.163 -0.14,0.408 -0.14,0.735 0.046,0.607 0.046,1.213 0,1.82 -0.047,0.607 -0.07,1.19 -0.07,1.75 0,0.327 -0.012,0.688 -0.035,1.085 0,0.373 0.128,0.688 0.385,0.945 0.256,0.257 0.63,0.432 1.12,0.525 0.49,0.093 1.026,0.128 1.61,0.105 z m 0.7,-16.8 c -0.724,-0.023 -1.33,-0.035 -1.82,-0.035 -0.467,-0.023 -0.84,0.012 -1.12,0.105 -0.257,0.07 -0.444,0.245 -0.56,0.525 -0.094,0.257 -0.129,0.653 -0.105,1.19 0,0.443 -0.012,0.887 -0.035,1.33 0,0.42 0,0.84 0,1.26 0,0.467 0.151,0.817 0.455,1.05 0.303,0.21 0.676,0.338 1.12,0.385 0.466,0.047 0.945,0.047 1.435,0 0.513,-0.047 0.956,-0.105 1.33,-0.175 0.84,-0.14 1.481,-0.42 1.925,-0.84 0.466,-0.443 0.735,-1.085 0.805,-1.925 0.093,-1.05 -0.187,-1.773 -0.84,-2.17 -0.63,-0.42 -1.494,-0.653 -2.59,-0.7 z" fill="url(#paint0_linear_49_7)" fill-opacity="0.95" id="path2" style="fill:url(#paint0_linear_49_7)"/>
  <path d="m 178.34065,165.54138 18.837,-32.554 c 0.767,-1.326 2.68,-1.332 3.456,-0.011 l 20.887,35.567 h -41.449 c -1.54,0 -2.503,-1.669 -1.731,-3.002 z" stroke="url(#paint1_linear_49_7)" stroke-opacity="0.8" stroke-width="4" id="path4" style="stroke:url(#paint1_linear_49_7)"/>
  <path d="m 241.92665,165.56238 -18.266,-32.469 c -0.762,-1.354 -2.709,-1.36 -3.48,-0.011 l -20.247,35.461 h 40.25 c 1.53,0 2.493,-1.648 1.743,-2.981 z" stroke="url(#paint2_linear_49_7)" stroke-opacity="0.8" stroke-width="4" id="path6" style="stroke:url(#paint2_linear_49_7)"/>
  <defs id="defs29">
    <linearGradient id="paint0_linear_49_7" x1="388" y1="132" x2="387.54099" y2="172.151" gradientUnits="userSpaceOnUse" gradientTransform="translate(-14.396351,-1.9816194)">
      <stop offset="0.312629" stop-color="#A6FAFA" id="stop8"/>
      <stop offset="0.587238" stop-color="#A696FA" id="stop10"/>
      <stop offset="0.809468" stop-color="#A610FA" id="stop12"/>
    </linearGradient>
    <linearGradient id="paint1_linear_49_7" x1="232.086" y1="164.817" x2="211.437" y2="133.45399" gradientUnits="userSpaceOnUse" gradientTransform="translate(-14.396351,-1.9816194)">
      <stop stop-color="#0E5FFA" id="stop15"/>
      <stop offset="0.5" stop-color="#895FFA" id="stop17"/>
      <stop offset="1" stop-color="#EE31C5" id="stop19"/>
    </linearGradient>
    <linearGradient id="paint2_linear_49_7" x1="233.467" y1="136.994" x2="265.78" y2="167.627" gradientUnits="userSpaceOnUse" gradientTransform="translate(-14.396351,-1.9816194)">
      <stop offset="0.0266666" stop-color="#A6FAFA" id="stop22"/>
      <stop offset="0.506667" stop-color="#A696FA" id="stop24"/>
      <stop offset="0.913731" stop-color="#A61DFA" id="stop26"/>
    </linearGradient>
  </defs>
</svg>