<svg width="363" height="66" viewBox="0 0 363 66" fill="none" xmlns="http://www.w3.org/2000/svg">
<g style="mix-blend-mode:darken">
<path d="M5.86939 53.6667L29.7968 8.31899C31.6664 4.77576 36.7355 4.76019 38.6267 8.29188L66.8529 61H10.2916C6.52672 61 4.11247 56.9964 5.86939 53.6667Z" stroke="url(#paint0_linear_0_1)" stroke-width="9"/>
<g filter="url(#filter0_b_0_1)">
<path d="M95.9323 53.5932L70.8502 7.92124C68.9582 4.47605 64.0138 4.46054 62.1002 7.89379L32.5 61H91.5497C95.3513 61 97.7623 56.9254 95.9323 53.5932Z" stroke="url(#paint1_linear_0_1)" stroke-width="9"/>
</g>
</g>
<g filter="url(#filter1_b_0_1)">
<path d="M156.135 47.26C156.172 47.48 156.19 47.7 156.19 47.92C156.227 48.1033 156.245 48.3233 156.245 48.58C156.245 49.02 156.117 49.4233 155.86 49.79C155.75 49.9733 155.603 50.1567 155.42 50.34C155.237 50.4867 155.017 50.615 154.76 50.725C153.843 51.2383 152.872 51.4217 151.845 51.275C151.332 51.1283 150.873 50.89 150.47 50.56C150.397 50.4867 150.342 50.45 150.305 50.45C150.268 50.4133 150.232 50.3583 150.195 50.285C150.158 50.2483 150.122 50.2117 150.085 50.175C150.048 50.1017 149.993 50.0467 149.92 50.01C149.737 49.8267 149.59 49.6617 149.48 49.515C149.37 49.3317 149.26 49.1483 149.15 48.965C149.077 48.7817 148.985 48.6167 148.875 48.47C148.802 48.2867 148.71 48.1033 148.6 47.92C148.527 47.7733 148.453 47.645 148.38 47.535C148.307 47.3883 148.252 47.2417 148.215 47.095C148.068 46.765 147.977 46.4717 147.94 46.215L146.785 43.52C144.255 43.52 141.725 43.5383 139.195 43.575C136.702 43.575 134.19 43.5567 131.66 43.52L130.505 46.215C130.432 46.3617 130.377 46.5083 130.34 46.655C130.34 46.8017 130.303 46.9483 130.23 47.095C130.157 47.2417 130.083 47.3883 130.01 47.535C129.973 47.645 129.918 47.7733 129.845 47.92C129.735 48.1033 129.625 48.2867 129.515 48.47C129.442 48.6167 129.35 48.7817 129.24 48.965C129.167 49.1483 129.075 49.3317 128.965 49.515C128.855 49.6617 128.708 49.8267 128.525 50.01C128.452 50.0467 128.397 50.1017 128.36 50.175C128.323 50.2117 128.287 50.2483 128.25 50.285C128.213 50.3583 128.177 50.4133 128.14 50.45C128.103 50.45 128.048 50.4867 127.975 50.56C127.572 50.89 127.113 51.1283 126.6 51.275C125.573 51.4217 124.602 51.2383 123.685 50.725C123.428 50.615 123.208 50.4867 123.025 50.34C122.842 50.1567 122.695 49.9733 122.585 49.79C122.328 49.4233 122.2 49.02 122.2 48.58C122.2 48.3233 122.2 48.1033 122.2 47.92C122.237 47.7 122.273 47.48 122.31 47.26C122.383 46.93 122.475 46.6 122.585 46.27C122.695 45.94 122.75 45.775 122.75 45.775L134.19 17.615L134.52 16.735C134.593 16.515 134.685 16.3133 134.795 16.13C134.905 15.9467 134.997 15.7267 135.07 15.47C135.253 14.9933 135.455 14.5717 135.675 14.205C135.785 13.985 135.913 13.7833 136.06 13.6C136.207 13.4167 136.353 13.2333 136.5 13.05C136.72 12.7567 137.032 12.5183 137.435 12.335C137.948 12.1517 138.535 12.06 139.195 12.06C139.892 12.06 140.497 12.1517 141.01 12.335C141.413 12.5183 141.725 12.7567 141.945 13.05C142.202 13.38 142.477 13.765 142.77 14.205C142.99 14.5717 143.192 14.9933 143.375 15.47C143.448 15.7267 143.54 15.9467 143.65 16.13C143.76 16.3133 143.852 16.515 143.925 16.735L144.255 17.615L155.695 45.775C155.695 45.775 155.75 45.94 155.86 46.27C155.97 46.6 156.062 46.93 156.135 47.26ZM143.1 33.785C142.623 32.7217 142.128 31.6217 141.615 30.485C141.138 29.3483 140.625 28.1933 140.075 27.02C139.928 26.69 139.782 26.36 139.635 26.03C139.488 25.6633 139.342 25.315 139.195 24.985C139.085 25.315 138.957 25.6633 138.81 26.03C138.663 26.36 138.517 26.69 138.37 27.02C137.82 28.1933 137.288 29.3483 136.775 30.485C136.298 31.6217 135.822 32.7217 135.345 33.785L134.355 36.205H144.09L143.1 33.785ZM172.812 45.17L172.867 40.825L172.922 32.74C172.959 31.5667 172.977 30.3567 172.977 29.11C172.977 27.8633 172.977 26.58 172.977 25.26C172.977 23.94 172.977 22.7667 172.977 21.74C172.977 20.7133 173.014 19.5583 173.087 18.275V18.055C173.124 17.6883 173.142 17.3217 173.142 16.955C173.179 16.5517 173.197 16.1483 173.197 15.745C173.234 15.085 173.435 14.37 173.802 13.6C174.059 13.0867 174.444 12.6467 174.957 12.28C175.544 11.9867 176.112 11.84 176.662 11.84C176.955 11.84 177.212 11.8583 177.432 11.895C177.689 11.895 177.927 11.9133 178.147 11.95C178.624 12.0233 179.045 12.2433 179.412 12.61C179.632 12.7933 179.834 13.0867 180.017 13.49C180.09 13.71 180.145 13.93 180.182 14.15C180.255 14.3333 180.31 14.535 180.347 14.755C180.384 15.0117 180.402 15.25 180.402 15.47C180.439 15.69 180.457 15.91 180.457 16.13C180.457 16.3867 180.439 16.625 180.402 16.845C180.402 17.0283 180.402 17.23 180.402 17.45V18.385L180.072 46.93V47.48C180.072 47.59 180.054 47.7367 180.017 47.92C180.017 48.0667 179.999 48.25 179.962 48.47C179.889 48.6533 179.815 48.855 179.742 49.075C179.705 49.2583 179.65 49.46 179.577 49.68C179.467 49.8633 179.339 50.0467 179.192 50.23C179.082 50.3767 178.935 50.5233 178.752 50.67C178.459 50.9633 177.982 51.165 177.322 51.275C176.332 51.495 175.397 51.4033 174.517 51C174.077 50.7067 173.765 50.34 173.582 49.9C173.472 49.79 173.417 49.68 173.417 49.57C173.38 49.4967 173.344 49.4417 173.307 49.405C173.27 49.3683 173.234 49.3133 173.197 49.24C173.124 49.0567 173.069 48.8733 173.032 48.69C172.995 48.47 172.977 48.25 172.977 48.03C172.94 47.8467 172.904 47.6633 172.867 47.48C172.867 47.2967 172.849 47.1133 172.812 46.93C172.775 46.6367 172.775 46.325 172.812 45.995V45.17ZM225.352 48.58C225.389 48.9467 225.352 49.295 225.242 49.625C225.169 49.845 225.059 50.0283 224.912 50.175C224.802 50.3217 224.655 50.4683 224.472 50.615C224.142 50.835 223.739 51.0367 223.262 51.22C222.969 51.2933 222.675 51.3483 222.382 51.385C222.125 51.4583 221.85 51.4583 221.557 51.385C220.97 51.3483 220.457 51.1283 220.017 50.725C219.394 50.2117 218.88 49.6433 218.477 49.02C218.294 48.7267 218.092 48.3967 217.872 48.03C217.652 47.6633 217.45 47.2783 217.267 46.875L211.162 35.27C210.869 35.27 210.575 35.2883 210.282 35.325C209.989 35.325 209.695 35.3433 209.402 35.38C208.632 35.4533 207.899 35.4717 207.202 35.435C206.542 35.3983 205.845 35.3983 205.112 35.435H204.067V45.39C204.067 45.6833 204.049 45.9583 204.012 46.215C204.012 46.4717 204.012 46.7467 204.012 47.04C204.012 47.2233 203.994 47.4617 203.957 47.755C203.957 48.0483 203.939 48.3233 203.902 48.58C203.829 48.9833 203.664 49.405 203.407 49.845C203.15 50.2483 202.802 50.5967 202.362 50.89C201.592 51.3667 200.657 51.495 199.557 51.275C199.08 51.165 198.622 50.9817 198.182 50.725C198.035 50.615 197.907 50.4867 197.797 50.34C197.687 50.1567 197.595 49.9733 197.522 49.79C197.449 49.6067 197.375 49.4233 197.302 49.24C197.265 49.02 197.21 48.8183 197.137 48.635C197.027 48.2683 196.972 47.92 196.972 47.59V16.35C196.972 16.13 196.972 15.91 196.972 15.69C197.009 15.4333 197.045 15.2133 197.082 15.03C197.119 14.6267 197.247 14.2233 197.467 13.82C197.577 13.38 197.76 13.0683 198.017 12.885C198.237 12.665 198.567 12.4817 199.007 12.335C199.484 12.1517 200.162 12.0783 201.042 12.115C202.692 12.1517 204.324 12.17 205.937 12.17C207.55 12.17 209.164 12.2067 210.777 12.28C211.84 12.3533 212.959 12.4817 214.132 12.665C215.342 12.8117 216.46 13.0867 217.487 13.49C218.147 13.7467 218.752 14.0033 219.302 14.26C219.999 14.6633 220.549 15.0483 220.952 15.415C222.235 16.5883 223.207 18 223.867 19.65C224.527 21.3 224.857 22.9683 224.857 24.655C224.857 26.635 224.38 28.45 223.427 30.1C222.51 31.75 221.025 32.9783 218.972 33.785C218.899 33.8583 218.789 33.9133 218.642 33.95C218.532 33.95 218.44 33.9683 218.367 34.005L223.427 44.18L223.922 45.06C223.995 45.2067 224.087 45.3717 224.197 45.555C224.307 45.7383 224.399 45.9217 224.472 46.105C224.582 46.2883 224.674 46.49 224.747 46.71C224.857 46.93 224.967 47.1317 225.077 47.315C225.187 47.8283 225.279 48.25 225.352 48.58ZM211.602 29C212.262 29 212.885 28.89 213.472 28.67C214.095 28.4133 214.645 28.0833 215.122 27.68C215.635 27.2767 216.057 26.8183 216.387 26.305C216.717 25.755 216.9 25.1683 216.937 24.545C217.084 22.7117 216.607 21.355 215.507 20.475C214.407 19.5583 212.959 19.0633 211.162 18.99C210.099 18.9167 208.925 18.88 207.642 18.88C206.395 18.88 205.204 18.88 204.067 18.88C204.104 20.3833 204.104 21.9233 204.067 23.5C204.067 25.04 204.067 26.8733 204.067 29H211.602ZM279.509 14.26C279.656 14.9567 279.656 15.69 279.509 16.46C279.436 16.8267 279.363 17.1933 279.289 17.56C279.253 17.89 279.198 18.2383 279.124 18.605L279.069 18.825C278.556 21.0983 277.969 23.5 277.309 26.03C276.686 28.5233 276.118 30.8883 275.604 33.125C275.164 34.9583 274.706 36.975 274.229 39.175C273.753 41.375 273.258 43.3917 272.744 45.225C272.561 45.8483 272.359 46.4717 272.139 47.095C271.956 47.7183 271.718 48.3417 271.424 48.965C271.168 49.515 270.856 50.01 270.489 50.45C270.159 50.8533 269.774 51.1467 269.334 51.33C268.894 51.55 268.418 51.6233 267.904 51.55C267.428 51.5133 266.896 51.2933 266.309 50.89C265.429 50.2667 264.769 49.405 264.329 48.305C263.926 47.205 263.504 46.1967 263.064 45.28C262.918 45.0233 262.698 44.455 262.404 43.575C262.111 42.695 261.799 41.7417 261.469 40.715C261.139 39.6517 260.809 38.6433 260.479 37.69C260.186 36.7 259.929 35.9667 259.709 35.49C259.379 36.2967 259.049 37.2133 258.719 38.24C258.389 39.2667 258.078 40.275 257.784 41.265C257.491 42.255 257.216 43.1533 256.959 43.96C256.739 44.73 256.574 45.2983 256.464 45.665C256.171 46.3983 255.841 47.205 255.474 48.085C255.144 48.965 254.723 49.7167 254.209 50.34C253.733 50.9633 253.146 51.3667 252.449 51.55C251.753 51.77 250.928 51.5683 249.974 50.945C249.241 50.505 248.728 49.8817 248.434 49.075C248.251 48.5617 248.068 48.0667 247.884 47.59C247.701 47.1133 247.554 46.6183 247.444 46.105L246.344 41.98L244.089 33.125C243.796 31.9883 243.503 30.8333 243.209 29.66C242.953 28.45 242.641 27.2033 242.274 25.92C242.091 25.2967 241.926 24.6917 241.779 24.105C241.669 23.4817 241.541 22.8217 241.394 22.125C241.284 21.3917 241.138 20.5667 240.954 19.65C240.808 18.7333 240.624 17.67 240.404 16.46C240.331 16.0567 240.276 15.69 240.239 15.36C240.239 14.9933 240.276 14.6267 240.349 14.26C240.423 13.71 240.679 13.2333 241.119 12.83C241.303 12.6467 241.523 12.5 241.779 12.39C242.036 12.28 242.311 12.1883 242.604 12.115C243.044 11.9683 243.503 11.895 243.979 11.895C244.419 11.895 244.878 12.0417 245.354 12.335C245.684 12.5183 245.941 12.7567 246.124 13.05L246.784 14.205C246.858 14.4617 246.931 14.7 247.004 14.92C247.078 15.1033 247.151 15.305 247.224 15.525C247.298 15.7817 247.353 16.02 247.389 16.24C247.426 16.4233 247.463 16.6067 247.499 16.79C247.829 18.6967 248.233 20.5483 248.709 22.345C249.186 24.1417 249.626 25.865 250.029 27.515C250.176 28.175 250.359 29 250.579 29.99C250.799 30.9433 251.019 31.9517 251.239 33.015C251.459 34.0417 251.679 35.0317 251.899 35.985C252.119 36.9383 252.339 37.69 252.559 38.24C253.036 36.59 253.513 34.94 253.989 33.29C254.503 31.64 255.053 29.9717 255.639 28.285C255.933 27.405 256.226 26.6167 256.519 25.92C256.849 25.1867 257.216 24.5817 257.619 24.105C258.023 23.6283 258.481 23.3167 258.994 23.17C259.508 23.0233 260.113 23.0783 260.809 23.335C261.433 23.5917 261.983 24.1417 262.459 24.985C262.936 25.8283 263.358 26.69 263.724 27.57C264.054 28.3767 264.366 29.2383 264.659 30.155C264.989 31.035 265.301 31.915 265.594 32.795C265.924 33.6383 266.236 34.445 266.529 35.215C266.823 35.985 267.116 36.645 267.409 37.195C267.519 36.7917 267.648 36.2783 267.794 35.655C267.941 35.0317 268.088 34.3717 268.234 33.675C268.418 32.9417 268.583 32.2267 268.729 31.53C268.876 30.8333 269.023 30.1917 269.169 29.605C269.646 27.625 270.141 25.645 270.654 23.665C271.168 21.6483 271.663 19.6683 272.139 17.725L272.414 16.79C272.488 16.6067 272.524 16.4233 272.524 16.24C272.561 16.02 272.616 15.7817 272.689 15.525C272.763 15.305 272.836 15.1033 272.909 14.92C272.983 14.7 273.056 14.4617 273.129 14.205C273.203 14.0217 273.276 13.8383 273.349 13.655C273.459 13.435 273.588 13.2333 273.734 13.05C273.844 12.8667 273.973 12.72 274.119 12.61C274.266 12.5 274.413 12.4083 274.559 12.335C275.073 12.0417 275.513 11.895 275.879 11.895C276.356 11.895 276.814 11.9683 277.254 12.115C277.841 12.225 278.373 12.4633 278.849 12.83C279.216 13.1967 279.436 13.6733 279.509 14.26ZM302.053 18.66L301.943 27.295H304.143C305.646 27.2583 306.984 27.24 308.158 27.24C309.331 27.24 310.633 27.2583 312.063 27.295H312.338C312.778 27.295 313.199 27.3133 313.603 27.35C314.043 27.35 314.464 27.35 314.868 27.35C315.308 27.3867 315.729 27.46 316.133 27.57C316.536 27.6433 316.939 27.735 317.343 27.845C317.966 28.065 318.479 28.395 318.883 28.835C319.249 29.3117 319.433 29.8433 319.433 30.43C319.433 30.6133 319.433 30.8333 319.433 31.09C319.433 31.31 319.396 31.5117 319.323 31.695C319.249 32.0983 319.011 32.465 318.608 32.795C318.424 33.0517 318.076 33.235 317.563 33.345C317.086 33.4917 316.609 33.5833 316.133 33.62C315.619 33.73 315.106 33.785 314.593 33.785H312.008L301.833 33.84L301.723 44.62L312.668 44.73H315.253C315.546 44.73 315.821 44.73 316.078 44.73C316.334 44.73 316.573 44.7483 316.793 44.785C317.086 44.8583 317.343 44.9133 317.563 44.95C317.819 44.95 318.058 44.9867 318.278 45.06C318.718 45.2067 319.084 45.4083 319.378 45.665C319.744 46.0317 319.983 46.4167 320.093 46.82C320.129 47.0033 320.148 47.205 320.148 47.425C320.184 47.6083 320.184 47.81 320.148 48.03C320.148 48.6167 319.964 49.1483 319.598 49.625C319.158 50.1383 318.644 50.4683 318.058 50.615C317.288 50.945 316.444 51.11 315.528 51.11C315.124 51.1467 314.703 51.165 314.263 51.165C313.823 51.165 313.401 51.1833 312.998 51.22H312.668C309.808 51.2933 306.838 51.2933 303.758 51.22C303.024 51.22 302.438 51.2017 301.998 51.165C301.558 51.165 301.154 51.165 300.788 51.165C300.458 51.165 300.109 51.165 299.743 51.165C299.376 51.165 298.899 51.165 298.313 51.165C297.469 51.2383 296.773 51.0917 296.223 50.725C295.819 50.4683 295.508 50.12 295.288 49.68C295.178 49.57 295.123 49.46 295.123 49.35C295.086 49.2767 295.049 49.2217 295.013 49.185C294.976 49.1483 294.939 49.0933 294.903 49.02C294.829 48.8367 294.774 48.6533 294.738 48.47C294.701 48.25 294.683 48.0483 294.683 47.865C294.646 47.6817 294.609 47.4983 294.573 47.315C294.573 47.1317 294.554 46.9483 294.518 46.765V45.885C294.518 45.7383 294.518 45.5917 294.518 45.445C294.554 45.2983 294.573 45.1517 294.573 45.005V40.715L294.683 32.795V25.48C294.683 24.16 294.683 22.9867 294.683 21.96C294.719 20.9333 294.756 19.815 294.793 18.605V18.33C294.829 17.9267 294.848 17.56 294.848 17.23C294.884 16.8633 294.903 16.4967 294.903 16.13C294.939 15.3967 295.141 14.6817 295.508 13.985C295.654 13.6917 295.801 13.435 295.948 13.215C296.131 12.995 296.369 12.8117 296.663 12.665C297.213 12.335 297.781 12.17 298.368 12.17C298.661 12.17 298.881 12.1883 299.028 12.225V12.17C299.688 12.17 300.219 12.17 300.623 12.17C301.026 12.17 301.411 12.17 301.778 12.17C302.181 12.17 302.603 12.17 303.043 12.17C303.483 12.1333 304.088 12.115 304.858 12.115C306.324 12.0783 307.718 12.06 309.038 12.06C310.358 12.06 311.714 12.0783 313.108 12.115H313.328C313.731 12.1517 314.153 12.17 314.593 12.17C315.033 12.17 315.454 12.1883 315.858 12.225C316.261 12.225 316.664 12.28 317.068 12.39C317.471 12.4633 317.874 12.5733 318.278 12.72C318.901 12.9033 319.414 13.215 319.818 13.655C320.148 14.1683 320.313 14.6817 320.313 15.195C320.313 15.415 320.313 15.635 320.313 15.855C320.313 16.0383 320.276 16.2217 320.203 16.405C320.166 16.7717 319.946 17.1567 319.543 17.56C319.396 17.6333 319.231 17.725 319.048 17.835C318.901 17.945 318.718 18.0367 318.498 18.11C318.278 18.1833 318.039 18.2383 317.783 18.275C317.563 18.275 317.343 18.2933 317.123 18.33C316.829 18.4033 316.554 18.44 316.298 18.44C316.078 18.44 315.821 18.44 315.528 18.44H313.053L302.053 18.495V18.66ZM356.823 30.705C357.886 31.4017 358.785 32.2267 359.518 33.18C360.288 34.0967 360.893 35.2333 361.333 36.59C361.81 38.0933 362.048 39.615 362.048 41.155C362.085 42.6583 361.81 44.07 361.223 45.39C360.673 46.6733 359.775 47.81 358.528 48.8C357.318 49.7533 355.723 50.4317 353.743 50.835C352.68 51.0917 351.433 51.2933 350.003 51.44C348.573 51.5867 347.29 51.66 346.153 51.66C344.723 51.6967 343.238 51.6967 341.698 51.66C340.195 51.66 338.728 51.5133 337.298 51.22C336.675 51.0367 336.216 50.725 335.923 50.285C335.666 49.8083 335.483 49.2767 335.373 48.69C335.226 48.36 335.153 48.03 335.153 47.7V16.46C335.153 15.4333 335.355 14.645 335.758 14.095C336.198 13.5083 336.766 13.0867 337.463 12.83C338.16 12.5367 338.948 12.3717 339.828 12.335C340.708 12.2617 341.625 12.225 342.578 12.225C343.311 12.225 344.045 12.225 344.778 12.225C345.548 12.1883 346.318 12.1883 347.088 12.225C348.298 12.2617 349.545 12.3717 350.828 12.555C352.148 12.7017 353.395 12.995 354.568 13.435C355.118 13.6183 355.705 13.875 356.328 14.205C356.951 14.4983 357.446 14.865 357.813 15.305C358.986 16.3683 359.848 17.615 360.398 19.045C360.985 20.4383 361.241 21.8683 361.168 23.335C361.095 24.765 360.691 26.14 359.958 27.46C359.261 28.78 358.216 29.8617 356.823 30.705ZM347.198 45.28C348.335 45.2067 349.49 45.0783 350.663 44.895C351.836 44.7117 352.643 44.3633 353.083 43.85C353.56 43.2633 353.89 42.585 354.073 41.815C354.293 41.0083 354.348 40.2017 354.238 39.395C354.165 38.5517 353.926 37.7633 353.523 37.03C353.156 36.26 352.661 35.655 352.038 35.215C351.195 34.555 350.223 34.1333 349.123 33.95C348.023 33.73 346.941 33.62 345.878 33.62C345.365 33.62 344.888 33.6383 344.448 33.675C344.045 33.675 343.678 33.73 343.348 33.84C343.055 33.9133 342.835 34.0783 342.688 34.335C342.541 34.5917 342.468 34.9767 342.468 35.49C342.541 36.4433 342.541 37.3967 342.468 38.35C342.395 39.3033 342.358 40.22 342.358 41.1C342.358 41.6133 342.34 42.1817 342.303 42.805C342.303 43.3917 342.505 43.8867 342.908 44.29C343.311 44.6933 343.898 44.9683 344.668 45.115C345.438 45.2617 346.281 45.3167 347.198 45.28ZM348.298 18.88C347.161 18.8433 346.208 18.825 345.438 18.825C344.705 18.7883 344.118 18.8433 343.678 18.99C343.275 19.1 342.981 19.375 342.798 19.815C342.651 20.2183 342.596 20.8417 342.633 21.685C342.633 22.3817 342.615 23.0783 342.578 23.775C342.578 24.435 342.578 25.095 342.578 25.755C342.578 26.4883 342.816 27.0383 343.293 27.405C343.77 27.735 344.356 27.9367 345.053 28.01C345.786 28.0833 346.538 28.0833 347.308 28.01C348.115 27.9367 348.811 27.845 349.398 27.735C350.718 27.515 351.726 27.075 352.423 26.415C353.156 25.7183 353.578 24.71 353.688 23.39C353.835 21.74 353.395 20.6033 352.368 19.98C351.378 19.32 350.021 18.9533 348.298 18.88Z" fill="url(#paint2_linear_0_1)"/>
</g>
<defs>
<filter id="filter0_b_0_1" x="20.84" y="-4" width="84.2232" height="73.5" filterUnits="userSpaceOnUse" color-interpolation-filters="sRGB">
<feFlood flood-opacity="0" result="BackgroundImageFix"/>
<feGaussianBlur in="BackgroundImageFix" stdDeviation="2"/>
<feComposite in2="SourceAlpha" operator="in" result="effect1_backgroundBlur_0_1"/>
<feBlend mode="normal" in="SourceGraphic" in2="effect1_backgroundBlur_0_1" result="shape"/>
</filter>
<filter id="filter1_b_0_1" x="118.2" y="7.83997" width="247.903" height="48.04" filterUnits="userSpaceOnUse" color-interpolation-filters="sRGB">
<feFlood flood-opacity="0" result="BackgroundImageFix"/>
<feGaussianBlur in="BackgroundImageFix" stdDeviation="2"/>
<feComposite in2="SourceAlpha" operator="in" result="effect1_backgroundBlur_0_1"/>
<feBlend mode="normal" in="SourceGraphic" in2="effect1_backgroundBlur_0_1" result="shape"/>
</filter>
<linearGradient id="paint0_linear_0_1" x1="34.4265" y1="0" x2="34.4265" y2="61" gradientUnits="userSpaceOnUse">
<stop stop-color="#4BABDB"/>
<stop offset="0.475" stop-color="#46C2E8"/>
<stop offset="0.93" stop-color="#4BD9DB"/>
</linearGradient>
<linearGradient id="paint1_linear_0_1" x1="66.25" y1="0" x2="66.25" y2="61" gradientUnits="userSpaceOnUse">
<stop stop-color="#4B2CDB"/>
<stop offset="0.425" stop-color="#4B60DB"/>
<stop offset="0.96" stop-color="#687AE9"/>
</linearGradient>
<linearGradient id="paint2_linear_0_1" x1="242" y1="0" x2="242" y2="69" gradientUnits="userSpaceOnUse">
<stop offset="0.144928" stop-color="#3006A7"/>
<stop offset="0.521739" stop-color="#6E6DEC"/>
</linearGradient>
</defs>
</svg>
