<?xml version="1.0" ?><!DOCTYPE svg  PUBLIC '-//W3C//DTD SVG 1.1//EN'  'http://www.w3.org/Graphics/SVG/1.1/DTD/svg11.dtd'><svg height="8.4666mm" style="shape-rendering:geometricPrecision; text-rendering:geometricPrecision; image-rendering:optimizeQuality; fill-rule:evenodd; clip-rule:evenodd" version="1.1" viewBox="0 0 846.66 846.66" width="8.4666mm" xml:space="preserve" xmlns="http://www.w3.org/2000/svg" xmlns:xlink="http://www.w3.org/1999/xlink"><defs><style type="text/css">
   <![CDATA[
    .fil0 {fill:black;fill-rule:nonzero}
   ]]>
  </style></defs><g id="Layer_x0020_1"><path class="fil0" d="M235.48 435.72l42.3 10.89 16.93 -65.78c2.83,-11.09 14.12,-17.79 25.21,-14.96l89.7 23.08c11.1,2.83 17.8,14.12 14.97,25.21l-16.95 65.87 36.05 9.28 57.84 -58.83 -48.45 -47.63c-8.18,-8.03 -8.28,-21.18 -0.25,-29.35l64.94 -66.05c8.04,-8.18 21.19,-8.29 29.36,-0.25l48.44 47.63 30.57 -31.1c8.04,-8.17 21.19,-8.28 29.36,-0.24l178 174.99c8.17,8.04 8.28,21.19 0.24,29.36l-253.14 257.48c-8.04,8.17 -21.18,8.28 -29.36,0.24l-5.07 -4.99 -8.26 32.09c-2.83,11.09 -14.12,17.79 -25.21,14.97l-349.68 -90c-11.09,-2.83 -17.79,-14.12 -14.96,-25.21l62.21 -241.74c2.83,-11.09 14.12,-17.79 25.21,-14.96zm350.43 -217.71c-21.26,16.98 -47.12,-15.38 -25.86,-32.37l83.28 -66.63c21.26,-16.98 47.12,15.38 25.86,32.37l-83.28 66.63zm-82.05 -10.28c-5.02,26.85 -45.85,19.2 -40.82,-7.65l22.9 -120.75c5.03,-26.85 45.86,-19.21 40.83,7.64l-22.91 120.76zm-395.5 285.98c26.85,5.03 19.2,45.85 -7.65,40.82l-77.03 -14.57c-26.85,-5.03 -19.2,-45.85 7.64,-40.82l77.04 14.57zm18.13 -94.76c22.76,15.17 -0.33,49.81 -23.09,34.64l-74.95 -49.97c-22.76,-15.16 0.34,-49.81 23.09,-34.64l74.95 49.97zm36.46 -178.08c-19.58,-19.04 9.37,-48.81 28.95,-29.77l24.98 24.38 64.14 -94.08c15.38,-22.54 49.7,0.88 34.32,23.42l-78.08 114.52c-7.38,10.54 -22.29,12.25 -31.63,3.17l-42.68 -41.64zm74.85 -182.48c83.94,0 151.98,68.04 151.98,151.98 0,83.94 -68.04,151.98 -151.98,151.98 -83.94,0 -151.98,-68.04 -151.98,-151.98 0,-83.94 68.04,-151.98 151.98,-151.98zm0 41.63c-60.95,0 -110.35,49.4 -110.35,110.35 0,60.94 49.41,110.35 110.35,110.35 60.94,0 110.35,-49.41 110.35,-110.35 0,-60.95 -49.41,-110.35 -110.35,-110.35zm252.36 421.25l95 24.45c11.09,2.83 17.79,14.12 14.96,25.21 -14,54.39 -27.99,108.78 -41.99,163.17l7.42 7.3 224.03 -227.87 -148.39 -145.88 -30.57 31.09c-8.04,8.18 -21.18,8.29 -29.36,0.25l-48.44 -47.63 -35.82 36.44 48.45 47.63c8.17,8.04 8.28,21.19 0.24,29.36l-55.53 56.48zm-112.89 13.75c-11.09,-2.82 -17.79,-14.11 -14.97,-25.21l16.96 -65.86 -49.55 -12.75 -16.93 65.77c-2.83,11.1 -14.12,17.8 -25.21,14.97l-42.3 -10.89 -51.88 201.58 309.52 79.66 11.19 -43.46 -127.37 -32.78c-26.42,-6.74 -16.17,-46.91 10.25,-40.17l127.45 32.8 8.84 -34.35 -127.36 -32.78c-26.43,-6.74 -16.18,-46.91 10.24,-40.17l127.45 32.8 11.19 -43.46c-59.17,-15.23 -118.35,-30.46 -177.52,-45.7z"/></g></svg>